<svg width="36" height="36" viewBox="0 0 36 36" fill="none" xmlns="http://www.w3.org/2000/svg">
<rect width="36" height="36" rx="18" fill="url(#paint0_linear_2033_933)"/>
<path d="M17.9882 18.2845C15.634 18.2845 13.6773 16.3295 13.6773 14.0162C13.6773 11.6228 15.634 9.66699 17.989 9.66699C20.424 9.66699 22.2998 11.622 22.2998 14.0162C22.298 14.5787 22.1853 15.1353 21.9684 15.6542C21.7514 16.1732 21.4343 16.6444 21.0353 17.0408C20.6362 17.4372 20.163 17.7512 19.6426 17.9647C19.1222 18.1782 18.5648 18.2872 18.0023 18.2853L17.9882 18.2845ZM17.9882 12.1812C16.9915 12.1812 16.2332 13.0187 16.2332 14.017C16.2332 15.0137 16.9915 15.772 17.989 15.772C19.0265 15.772 19.7448 15.0137 19.7448 14.017C19.7457 13.0178 19.0265 12.1812 17.9882 12.1812ZM19.7048 21.8362L22.1407 24.1903C22.6198 24.7078 22.6198 25.4662 22.1407 25.9453C21.6223 26.4628 20.8232 26.4628 20.424 25.9453L17.989 23.5512L15.634 25.9453C15.3948 26.1845 15.0748 26.3037 14.7148 26.3037C14.4357 26.3037 14.1165 26.1837 13.8365 25.9453C13.3573 25.4662 13.3573 24.7078 13.8365 24.1895L16.3115 21.8353C15.4177 21.5706 14.5603 21.1957 13.759 20.7195C13.1598 20.4003 13.0407 19.6028 13.3598 19.0037C13.759 18.4053 14.4773 18.2462 15.1165 18.6453C15.982 19.1735 16.9763 19.4529 17.9903 19.4529C19.0042 19.4529 19.9985 19.1735 20.864 18.6453C21.5032 18.2462 22.2607 18.4053 22.6198 19.0037C22.9798 19.6028 22.819 20.3995 22.2598 20.7195C21.5023 21.1987 20.624 21.5578 19.7057 21.837L19.7048 21.8362Z" fill="white"/>
<defs>
<linearGradient id="paint0_linear_2033_933" x1="18" y1="0" x2="18" y2="36" gradientUnits="userSpaceOnUse">
<stop stop-color="#FF852B"/>
<stop offset="1" stop-color="#FF581F"/>
</linearGradient>
</defs>
</svg>
