<svg width="36" height="36" viewBox="0 0 36 36" fill="none" xmlns="http://www.w3.org/2000/svg">
<rect width="36" height="36" rx="18" fill="url(#paint0_linear_2005_231)"/>
<path d="M25.314 20.9631L21.4575 19.2348C21.2828 19.16 21.0922 19.1299 20.9029 19.1473C20.7136 19.1647 20.5316 19.229 20.3734 19.3344C20.3574 19.3448 20.3421 19.3562 20.3277 19.3687L18.3121 21.0831C18.2912 21.0945 18.2679 21.1009 18.2441 21.1017C18.2203 21.1026 18.1967 21.0979 18.175 21.088C16.8794 20.4626 15.5373 19.1287 14.9096 17.8511C14.8991 17.8298 14.8937 17.8063 14.8937 17.7825C14.8937 17.7588 14.8991 17.7353 14.9096 17.714L16.6296 15.6731C16.642 15.658 16.6534 15.6422 16.6639 15.6257C16.7679 15.467 16.8307 15.2848 16.8467 15.0957C16.8626 14.9065 16.8312 14.7164 16.7553 14.5424L15.0394 10.6925C14.9419 10.4652 14.7734 10.2757 14.5591 10.1523C14.3448 10.029 14.0962 9.97849 13.8508 10.0084C12.784 10.1486 11.8047 10.6725 11.0961 11.4822C10.3874 12.2918 9.99777 13.3318 10 14.4077C10 20.7998 15.2002 26 21.5922 26C22.6682 26.0021 23.708 25.6124 24.5176 24.9037C25.3272 24.1951 25.8512 23.216 25.9916 22.1492C26.0214 21.9049 25.9716 21.6575 25.8495 21.4438C25.7274 21.2301 25.5396 21.0615 25.314 20.9631ZM21.5922 25.0204C15.7406 25.0204 10.9796 20.2594 10.9796 14.4077C10.9769 13.5701 11.2792 12.7601 11.8301 12.1291C12.3811 11.4981 13.1429 11.0893 13.9732 10.979H13.992C14.0249 10.9797 14.0568 10.9902 14.0836 11.0093C14.1104 11.0284 14.1308 11.0551 14.1422 11.086L15.8647 14.9318C15.8745 14.9532 15.8796 14.9765 15.8796 15C15.8796 15.0235 15.8745 15.0468 15.8647 15.0682L14.1414 17.114C14.1286 17.1286 14.1168 17.1442 14.1063 17.1605C13.9984 17.3251 13.9349 17.5148 13.9219 17.7112C13.9089 17.9075 13.9468 18.1039 14.032 18.2813C14.7561 19.7638 16.25 21.2463 17.7488 21.9705C17.9273 22.0552 18.1247 22.0922 18.3217 22.0778C18.5187 22.0635 18.7086 21.9984 18.873 21.8888C18.8885 21.8782 18.904 21.8668 18.9187 21.8545L20.9334 20.1402C20.9533 20.1295 20.9753 20.1232 20.9979 20.1218C21.0204 20.1204 21.043 20.1239 21.0641 20.132L24.9213 21.8602C24.9528 21.8737 24.9793 21.8967 24.9971 21.926C25.0148 21.9553 25.0228 21.9894 25.0201 22.0235C24.9104 22.8543 24.502 23.6166 23.8711 24.1681C23.2403 24.7197 22.4302 25.0226 21.5922 25.0204Z" fill="white"/>
<defs>
<linearGradient id="paint0_linear_2005_231" x1="18" y1="0" x2="18" y2="36" gradientUnits="userSpaceOnUse">
<stop stop-color="#FF852B"/>
<stop offset="1" stop-color="#FF581F"/>
</linearGradient>
</defs>
</svg>
