<svg width="36" height="36" viewBox="0 0 36 36" fill="none" xmlns="http://www.w3.org/2000/svg">
<rect width="36" height="36" rx="18" fill="url(#paint0_linear_2033_926)"/>
<path d="M23.7393 10.5762C24.4191 10.2812 25.1498 10.8886 24.9727 11.6094L22.0586 23.542C21.9215 24.104 21.2875 24.3938 20.7676 24.127L17.082 22.2363L15.3389 25.0693C14.8647 25.8413 13.665 25.5063 13.665 24.6035V21.4473C13.6651 21.2034 13.7683 20.971 13.9453 20.8008L21.1279 13.9883C21.1222 13.9032 21.0307 13.8295 20.9395 13.8916L12.3682 19.8184L9.48926 18.3418C8.81521 17.9955 8.84338 17.0256 9.54004 16.7246L23.7393 10.5762Z" fill="white"/>
<defs>
<linearGradient id="paint0_linear_2033_926" x1="18" y1="0" x2="18" y2="36" gradientUnits="userSpaceOnUse">
<stop stop-color="#FF852B"/>
<stop offset="1" stop-color="#FF581F"/>
</linearGradient>
</defs>
</svg>
