<svg width="36" height="36" viewBox="0 0 36 36" fill="none" xmlns="http://www.w3.org/2000/svg">
<rect width="36" height="36" rx="18" fill="url(#paint0_linear_2033_930)"/>
<path d="M12.9409 14.0235C13.4385 15.2302 14.0811 16.3564 14.9104 17.3821C15.0141 17.5229 15.1592 17.6436 15.3043 17.7441C15.5116 17.8849 15.7189 17.8447 15.8018 17.6034C15.8848 17.3419 15.9884 16.8391 15.9884 16.5777C16.0092 15.8939 15.9884 15.4313 15.947 14.7475C15.9262 14.305 15.7604 13.9229 15.097 13.8022C14.8897 13.762 14.8689 13.6011 15.0141 13.4402C15.2836 13.0983 15.6775 13.038 16.0921 13.0179C16.7762 12.9777 17.4396 13.0179 18.1237 13.0179C18.3933 13.0179 18.6835 13.038 18.953 13.0983C19.3054 13.1788 19.492 13.4201 19.5542 13.7419C19.5749 13.9229 19.5957 14.0838 19.5957 14.2648C19.5749 15.0089 19.5335 15.7732 19.5335 16.5173C19.5335 16.819 19.5542 17.1207 19.6164 17.4022C19.6993 17.8045 19.9896 17.905 20.2798 17.6235C20.653 17.2615 20.9639 16.8391 21.2749 16.4168C21.8347 15.6525 22.2285 14.8078 22.581 13.943C22.7676 13.5006 22.9127 13.4 23.3895 13.4C24.3224 13.4 25.2553 13.4 26.1882 13.4C26.3541 13.4 26.5199 13.4201 26.6858 13.4603C26.9345 13.5408 27.0382 13.7419 26.976 13.9832C26.8309 14.5866 26.4992 15.0894 26.1468 15.5721C25.587 16.3564 24.9858 17.1207 24.4053 17.8849C24.3224 17.9855 24.2602 18.086 24.198 18.1866C23.97 18.5687 23.9907 18.7899 24.3224 19.0916C24.82 19.5944 25.3797 20.0771 25.8565 20.6C26.209 20.9821 26.5407 21.3844 26.8309 21.8268C27.1833 22.3698 26.976 22.8927 26.2919 22.9732C25.8773 23.0335 23.8249 22.9732 23.7212 22.9732C23.1615 22.9732 22.6846 22.7922 22.2907 22.4302C21.8554 22.0279 21.4615 21.5855 21.0469 21.1631C20.9225 21.0425 20.7981 20.9218 20.653 20.8011C20.3213 20.5397 19.9896 20.6 19.8237 21.0022C19.6786 21.3441 19.5749 22.2089 19.5749 22.2894C19.5542 22.6715 19.2847 22.933 18.8493 22.9531C17.5433 23.0134 16.2787 22.8726 15.1177 22.2693C14.1226 21.7464 13.3348 21.0223 12.63 20.1777C11.5105 18.8101 10.6605 17.3218 9.8727 15.7933C9.83123 15.7128 9.04344 14.0637 9.02271 13.9832C8.96052 13.7218 9.02271 13.4804 9.25076 13.3799C9.39588 13.3196 12.0287 13.3799 12.0702 13.3799C12.4641 13.4201 12.7543 13.581 12.9409 14.0235Z" fill="white"/>
<defs>
<linearGradient id="paint0_linear_2033_930" x1="18" y1="0" x2="18" y2="36" gradientUnits="userSpaceOnUse">
<stop stop-color="#FF852B"/>
<stop offset="1" stop-color="#FF581F"/>
</linearGradient>
</defs>
</svg>
