<svg width="21" height="12" viewBox="0 0 21 12" fill="none" xmlns="http://www.w3.org/2000/svg">
<path d="M4.59775 1.22816C5.17822 2.6762 5.92801 4.02771 6.89547 5.25855C7.0164 5.42749 7.1857 5.57229 7.35501 5.69296C7.59687 5.8619 7.83874 5.81363 7.93549 5.52402C8.03223 5.21028 8.15316 4.60693 8.15316 4.29318C8.17735 3.47263 8.15316 2.91754 8.10479 2.09698C8.0806 1.56603 7.88711 1.10749 7.11314 0.962682C6.87128 0.914413 6.84709 0.721341 7.0164 0.528268C7.33082 0.117989 7.79037 0.0455866 8.2741 0.0214525C9.07225 -0.0268156 9.84622 0.0214525 10.6444 0.0214525C10.9588 0.0214525 11.2974 0.0455866 11.6118 0.117989C12.023 0.214525 12.2407 0.504134 12.3132 0.890279C12.3374 1.10749 12.3616 1.30056 12.3616 1.51777C12.3374 2.41073 12.2891 3.32782 12.2891 4.22078C12.2891 4.58279 12.3132 4.9448 12.3858 5.28268C12.4825 5.76536 12.8212 5.88603 13.1598 5.54816C13.5951 5.11374 13.9579 4.60693 14.3207 4.10011C14.9738 3.18302 15.4333 2.16939 15.8445 1.13162C16.0622 0.60067 16.2315 0.48 16.7877 0.48C17.8761 0.48 18.9645 0.48 20.0529 0.48C20.2464 0.48 20.4399 0.504134 20.6334 0.552402C20.9236 0.648939 21.0446 0.890279 20.972 1.17989C20.8027 1.90391 20.4157 2.50726 20.0046 3.08648C19.3515 4.02771 18.6501 4.9448 17.9729 5.8619C17.8761 5.98257 17.8036 6.10324 17.731 6.22391C17.465 6.68246 17.4892 6.94793 17.8761 7.30994C18.4566 7.9133 19.1097 8.49251 19.6659 9.12C20.0771 9.57855 20.4641 10.0612 20.8027 10.5922C21.2139 11.2438 20.972 11.8713 20.1739 11.9678C19.6901 12.0402 17.2957 11.9678 17.1747 11.9678C16.5217 11.9678 15.9654 11.7506 15.5059 11.3162C14.9979 10.8335 14.5384 10.3026 14.0547 9.79575C13.9096 9.65095 13.7644 9.50615 13.5951 9.36134C13.2081 9.0476 12.8212 9.12 12.6277 9.60268C12.4584 10.013 12.3374 11.0507 12.3374 11.1473C12.3132 11.6058 11.9988 11.9196 11.4909 11.9437C9.96715 12.0161 8.49178 11.8472 7.13733 11.1231C5.97638 10.4956 5.05729 9.62682 4.23495 8.61318C2.92888 6.97207 1.93723 5.18615 1.01814 3.35196C0.969771 3.25542 0.0506842 1.27642 0.0264976 1.17989C-0.0460619 0.866145 0.0264976 0.576536 0.292549 0.455866C0.461855 0.383464 3.53354 0.455866 3.58191 0.455866C4.04146 0.504134 4.38007 0.697207 4.59775 1.22816Z" fill="#FF815A"/>
</svg>
