<svg width="21" height="21" viewBox="0 0 21 21" fill="none" xmlns="http://www.w3.org/2000/svg">
<path d="M15.5389 12.0668C15.498 12.0472 13.967 11.2933 13.695 11.1954C13.5839 11.1555 13.465 11.1166 13.3384 11.1166C13.1317 11.1166 12.958 11.2196 12.8228 11.4219C12.6698 11.6493 12.2069 12.1904 12.0638 12.3521C12.0451 12.3734 12.0196 12.3989 12.0044 12.3989C11.9907 12.3989 11.7537 12.3014 11.682 12.2702C10.0397 11.5568 8.79314 9.84129 8.62221 9.55199C8.5978 9.5104 8.59677 9.49152 8.59657 9.49152C8.60257 9.46949 8.6578 9.41413 8.6863 9.38556C8.76968 9.30306 8.86002 9.19431 8.94743 9.08911C8.98882 9.03926 9.03027 8.98936 9.07098 8.94231C9.1978 8.79476 9.25425 8.68022 9.31971 8.54754L9.354 8.47861C9.51382 8.16108 9.37732 7.89313 9.33321 7.80661C9.297 7.7342 8.65057 6.17406 8.58184 6.01015C8.41657 5.61463 8.19818 5.43047 7.89471 5.43047C7.86655 5.43047 7.89471 5.43047 7.77661 5.43545C7.63282 5.44151 6.84975 5.54461 6.50352 5.76286C6.13636 5.99433 5.51523 6.7322 5.51523 8.02983C5.51523 9.19772 6.25636 10.3004 6.57457 10.7198C6.58248 10.7304 6.597 10.7519 6.61807 10.7827C7.83668 12.5624 9.35584 13.8813 10.8959 14.4965C12.3785 15.0887 13.0805 15.1572 13.4797 15.1572H13.4798C13.6475 15.1572 13.7817 15.144 13.9002 15.1323L13.9753 15.1252C14.4875 15.0798 15.613 14.4965 15.869 13.7851C16.0707 13.2247 16.1239 12.6124 15.9897 12.3902C15.8978 12.2391 15.7394 12.1631 15.5389 12.0668Z" fill="#FF815A"/>
<path d="M10.6864 0C4.99894 0 0.371848 4.59232 0.371848 10.237C0.371848 12.0627 0.860439 13.8498 1.78601 15.4139L0.0144387 20.6397C-0.0185613 20.7372 0.00598416 20.8449 0.0780523 20.9183C0.130075 20.9714 0.200643 21 0.272711 21C0.300325 21 0.328143 20.9958 0.35528 20.9872L5.80437 19.2556C7.29551 20.0523 8.98083 20.4729 10.6865 20.4729C16.3734 20.473 21 15.8811 21 10.237C21 4.59232 16.3734 0 10.6864 0ZM10.6864 18.3405C9.08146 18.3405 7.52698 17.8771 6.19076 17.0003C6.14583 16.9707 6.09367 16.9556 6.04117 16.9556C6.01342 16.9556 5.9856 16.9598 5.95853 16.9684L3.22887 17.8361L4.11005 15.2364C4.13855 15.1523 4.1243 15.0595 4.0718 14.9877C3.05426 13.5974 2.51637 11.9547 2.51637 10.237C2.51637 5.76818 6.18142 2.13245 10.6863 2.13245C15.1907 2.13245 18.8553 5.76818 18.8553 10.237C18.8554 14.7053 15.1908 18.3405 10.6864 18.3405Z" fill="#FF815A"/>
</svg>
