<svg width="36" height="36" viewBox="0 0 36 36" fill="none" xmlns="http://www.w3.org/2000/svg">
<rect width="36" height="36" rx="18" fill="url(#paint0_linear_2033_921)"/>
<path d="M21.5793 19.2688C21.5461 19.2529 20.3068 18.6426 20.0866 18.5633C19.9967 18.531 19.9003 18.4995 19.7979 18.4995C19.6305 18.4995 19.49 18.5829 19.3805 18.7467C19.2567 18.9307 18.8819 19.3688 18.7661 19.4997C18.751 19.517 18.7303 19.5376 18.718 19.5376C18.7069 19.5376 18.5151 19.4586 18.457 19.4334C17.1275 18.8559 16.1184 17.4671 15.98 17.233C15.9603 17.1993 15.9594 17.184 15.9593 17.184C15.9641 17.1662 16.0088 17.1214 16.0319 17.0982C16.0994 17.0314 16.1725 16.9434 16.2433 16.8582C16.2768 16.8179 16.3104 16.7775 16.3433 16.7394C16.446 16.62 16.4917 16.5272 16.5447 16.4198L16.5724 16.364C16.7018 16.107 16.5913 15.8901 16.5556 15.82C16.5263 15.7614 16.003 14.4984 15.9473 14.3658C15.8135 14.0456 15.6368 13.8965 15.3911 13.8965C15.3683 13.8965 15.3911 13.8965 15.2955 13.9005C15.1791 13.9054 14.5452 13.9889 14.2649 14.1656C13.9677 14.3529 13.4648 14.9503 13.4648 16.0007C13.4648 16.9462 14.0648 17.8388 14.3224 18.1783C14.3288 18.1869 14.3406 18.2043 14.3576 18.2292C15.3441 19.6699 16.5739 20.7376 17.8206 21.2356C19.0208 21.715 19.5891 21.7705 19.9123 21.7705H19.9123C20.0481 21.7705 20.1568 21.7598 20.2526 21.7504L20.3135 21.7446C20.7281 21.7078 21.6392 21.2357 21.8465 20.6597C22.0098 20.2061 22.0528 19.7104 21.9442 19.5305C21.8698 19.4082 21.7416 19.3467 21.5793 19.2688Z" fill="white"/>
<path d="M17.6509 9.5C13.0468 9.5 9.30102 13.2176 9.30102 17.7871C9.30102 19.2651 9.69655 20.7118 10.4458 21.9779L9.01169 26.2084C8.98497 26.2872 9.00484 26.3744 9.06319 26.4338C9.1053 26.4768 9.16243 26.5 9.22077 26.5C9.24312 26.5 9.26564 26.4966 9.28761 26.4896L13.6988 25.0879C14.9059 25.7328 16.2702 26.0733 17.6509 26.0733C22.2546 26.0733 26 22.3561 26 17.7871C26 13.2176 22.2546 9.5 17.6509 9.5ZM17.6509 24.3471C16.3517 24.3471 15.0933 23.9719 14.0116 23.2621C13.9752 23.2382 13.933 23.226 13.8905 23.226C13.868 23.226 13.8455 23.2294 13.8236 23.2363L11.6138 23.9387L12.3272 21.8342C12.3503 21.7661 12.3387 21.691 12.2962 21.6329C11.4725 20.5074 11.0371 19.1776 11.0371 17.7871C11.0371 14.1695 14.004 11.2263 17.6508 11.2263C21.2972 11.2263 24.2638 14.1695 24.2638 17.7871C24.2639 21.4043 21.2973 24.3471 17.6509 24.3471Z" fill="white"/>
<defs>
<linearGradient id="paint0_linear_2033_921" x1="18" y1="0" x2="18" y2="36" gradientUnits="userSpaceOnUse">
<stop stop-color="#FF852B"/>
<stop offset="1" stop-color="#FF581F"/>
</linearGradient>
</defs>
</svg>
